<svg xmlns="http://www.w3.org/2000/svg" viewBox="0 0 16 16">
  <path fill="#b08800" d="M8 1.5c-.74 0-1.35.41-1.65 1.01C6.23 2.84 6 3.22 6 3.5c0 .28.23.66.35.99.3.6.91 1.01 1.65 1.01.74 0 1.35-.41 1.65-1.01.12-.33.35-.71.35-.99 0-.28-.23-.66-.35-.99C9.35 1.91 8.74 1.5 8 1.5zM5.64 7.25c.18-.16.36-.42.36-.75 0-.29-.13-.48-.25-.69-.37-.64-.77-1.31-.77-2.31 0-1.73 1.35-3 3.02-3 1.67 0 3.02 1.27 3.02 3 0 1-.4 1.67-.77 2.31-.12.21-.25.4-.25.69 0 .33.18.59.36.75.81.72 1.64 1.81 1.64 3.25 0 2.5-2 4.5-4.5 4.5S3 12.75 3 10.25c0-1.44.83-2.53 1.64-3.25zm.86 4.04c0 .55.45 1 1 1h1c.55 0 1-.45 1-1v-1c0-.55-.45-1-1-1h-1c-.55 0-1 .45-1 1v1z"/>
</svg>
